<svg xmlns="http://www.w3.org/2000/svg" width="32" height="32"><g transform="translate(466.75 -1111.362)"><g transform="translate(-466.75 92)"><path style="isolation:auto;mix-blend-mode:normal" fill="#cad1d8" d="M16 1045.8v3.562h-2v-3.562" color="#000" overflow="visible"/><path style="isolation:auto;mix-blend-mode:normal" fill="none" stroke="#cad1d8" stroke-dashoffset="1.5" stroke-linecap="round" stroke-linejoin="round" d="M20.75 1024.34a11.5 11.5 0 0 1 4.21 15.71 11.5 11.5 0 0 1-15.71 4.209" color="#000" overflow="visible"/><path fill="none" stroke="#cad1d8" stroke-linecap="round" stroke-linejoin="round" d="m10.225 1042.58-1.842 3.19m11.405-19.789 1.85-3.204"/><circle cx="15" cy="1034.273" r="9.5" fill="#34485c" color="#000" overflow="visible" style="isolation:auto;mix-blend-mode:normal"/><path fill="#4bbfeb" d="M12.027 1028.542c-.143-.032-.287.057-.53.248-.196.153-.452.279-.57.279-.189.001-.189-.014 0-.137.169-.109.134-.138-.157-.138-.46-.003-1.266.269-1.266.427 0 .065-.111.15-.248.188-.137.039-.057.051.178.03.234-.023.512.03.619.112.144.114.238.09.37-.091.099-.134.23-.244.29-.244.212 0 .625.596.72 1.042.054.248.157.568.231.71v.001c.172.33.459.24.518-.162.025-.17.095-.308.156-.308.06 0 .225-.216.367-.479l.258-.478-.414-.518c-.237-.297-.378-.45-.522-.482Zm2.465.246c-.03-.003-.062.009-.094.04-.046.048-.035.167.026.266.09.146.123.145.172 0 .051-.154-.014-.298-.104-.306zm4.432.303c-.099-.023-.178.021-.244.128-.049.079-.183.141-.3.141-.115 0-.346.128-.513.283-.216.202-.352.24-.478.135-.198-.164-.42.058-.282.281.044.071-.047.096-.203.055a.935.935 0 0 0-.533.035c-.138.06-.298.098-.357.086-.059-.012-.108.043-.108.121s-.128.014-.285-.142c-.39-.39-.615-.36-1.127.152-.475.475-.552.769-.234.89.132.051.252-.066.347-.34.167-.478.46-.575.338-.11-.057.219-.03.275.096.197.129-.08.126-.03-.012.191-.103.165-.253.3-.332.31-.628.048-1.068.314-1.068.647 0 .108-.069.195-.152.195-.084 0-.132.152-.108.336.024.185-.038.436-.139.557-.274.33-.378 1.204-.173 1.451.096.116.387.251.646.299.495.093.63.334.637 1.107 0 .223.105.62.23.885v.004c.196.413.268.46.506.332.153-.082.311-.257.352-.389.04-.132.132-.35.205-.486.073-.136.13-.403.13-.596 0-.192.142-.59.315-.882.3-.509.301-.53.035-.436-.186.066-.148.001.114-.197.387-.294.539-.734.23-.664-.088.02-.188-.048-.225-.147-.053-.147.015-.148.338-.01.611.262.733.386.832.838.089.407.412.784.336.397-.056-.29.158-.832.33-.832.084 0 .305.163.49.363.364.392.684.345.55-.08-.058-.18.003-.29.199-.352.325-.103.465-.433.377-.894-.055-.285-.031-.302.23-.162.19.102.262.105.203.01-.05-.082.045-.276.213-.432.218-.204.281-.383.219-.633-.114-.454.128-.645.916-.717.877-.081 1.127-.211 1.127-.588 0-.268-.093-.34-.533-.398-1.848-.247-2.528-.41-2.772-.672-.145-.156-.264-.245-.363-.267zm-8.85.001a.5.5 0 0 1 .178.03c.098.04.018.072-.178.072-.195 0-.275-.033-.178-.072a.5.5 0 0 1 .178-.03zm6.77.125c-.12 0-.288.133-.375.295-.144.269-.13.283.13.143.385-.206.513-.438.245-.438zm-7.24.444c-.071 0-.08.043-.028.127.048.078.227.14.399.13.3-.01.301-.012.027-.13-.196-.084-.328-.127-.398-.127Zm-.77.035c-.026.011-.041.04-.041.08 0 .083.064.152.143.152.078 0 .142-.03.142-.064s-.064-.102-.142-.15c-.04-.024-.076-.03-.102-.018zm-.61.23c-.078 0-.142.098-.142.215 0 .135.135.213.363.213.199 0 .324.062.282.135-.043.073.048.123.205.111.158-.012.285-.054.285-.097-.007-.221-.248-.388-.531-.364-.177.014-.319-.027-.319-.093 0-.065-.064-.12-.142-.12zm1.268.16a.378.378 0 0 0-.156.028c-.114.046-.08.076.086.086.15.007.233-.027.185-.074-.023-.024-.065-.037-.115-.04zm.356.02c-.055.055-.021.194.074.309.143.171.122.206-.113.187-.157-.012-.253-.088-.213-.17.04-.08-.014-.046-.117.078-.2.239-.66.306-.899.13-.078-.058-.67-.152-1.316-.206l-.91-.076a9.5 9.5 0 0 0-.256.631c.01.279.064.533.136.578.08.05.107.164.06.256-.045.092.045.024.2-.152.189-.215.369-.289.543-.227.468.166.902.66.902 1.027 0 .568 1.053 2.005 1.723 2.354v-.002c.187.097.371.148.41.111.04-.036-.004-.094-.097-.127-.097-.033-.138-.147-.098-.252.046-.12-.023-.18-.186-.168-.17.014-.257-.075-.257-.263 0-.217.092-.29.39-.28.22.004.39-.07.39-.17 0-.24.63-.9.872-.914.144-.008.148-.029.018-.082-.352-.142-.177-.362.214-.271.29.067.336.052.178-.055-.117-.078-.153-.146-.078-.146.074-.001-.086-.22-.356-.487-.517-.51-.705-.53-.705-.076 0 .332-.136.348-.505.063-.25-.194-.257-.229-.05-.39.126-.099.275-.323.33-.499.11-.346.295-.413.45-.162.054.087.019.207-.076.266-.124.076-.101.132.078.2.255.099.517-.148.437-.411-.063-.21-1.057-.72-1.173-.604zm3 .295c-.223 0-.279.126-.123.281.106.107.336-.01.336-.17 0-.06-.096-.11-.213-.11zm8.722.84a.404.404 0 0 0-.226.225c-.086.256.21.201.308-.057.053-.14.022-.202-.082-.168zm-7.988.05c-.041-.004-.094.038-.18.124-.23.23-.267.42-.056.29.078-.048.142-.005.142.093 0 .123.046.132.147.03.08-.08.105-.251.056-.38-.038-.1-.068-.151-.109-.156zm2.611.84c.094-.058.273.38.28.678 0 .06-.054.108-.123.108-.163 0-.3-.697-.157-.785zm-.742.04c.175-.046.262.017.276.197.01.145.007.258-.008.248a2.26 2.26 0 0 0-.276-.082c-.322-.084-.318-.28.008-.363zm-1.017.13c.066.02.118.06.144.127.043.112.2.204.348.204.148 0 .27.063.27.142 0 .078.098.143.22.143s.183.064.135.142c-.049.079-.34.14-.649.14-.308 0-.56-.062-.56-.14 0-.078-.163-.142-.362-.142-.308 0-.34-.04-.218-.268.139-.26.471-.405.672-.348zm6.341.045c-.057.001-.177.16-.267.356-.09.195-.117.355-.059.355.059 0 .179-.16.268-.355.089-.196.115-.356.058-.356zm-5.29 1.168c.002-.055.104.081.224.303.12.222.193.431.16.463-.063.063-.395-.597-.385-.766zm-5.313.684c-.102.001-.085.059.043.14.273.177.324.177.215 0a.337.337 0 0 0-.258-.14zm8.478.62c-.025.01-.04.04-.04.081 0 .084.064.15.142.15.078 0 .143-.03.143-.064s-.065-.102-.143-.15c-.04-.024-.076-.03-.102-.018zm.81.02c-.076.048-.14.147-.14.221 0 .205.103.159.198-.088.048-.124.024-.182-.057-.132zm-9.087.323c-.104.001-.18.111-.275.375-.234.647-.208.945.115 1.289.256.272.27.4.154 1.432-.085.757-.08 1.19.02 1.31.192.231.18.247.217-.285.017-.254.145-.559.287-.676.406-.337 1.137-1.495 1.24-1.965.078-.354.042-.444-.2-.521-.16-.051-.292-.177-.292-.28 0-.102-.209-.265-.463-.359a8.101 8.101 0 0 1-.688-.287.247.247 0 0 0-.115-.033zm9.588.236c-.024-.018-.027-.004-.002.045.05.098.022.178-.06.178a.155.155 0 0 0-.151.158c0 .086.095.118.213.074.117-.045.213-.018.213.057 0 .076.031.137.07.137.139 0 .069-.234-.152-.506a.978.978 0 0 0-.131-.143zm-.758.113c-.017.04.079.216.299.5.076.098.193.178.262.178.068 0-.016-.16-.186-.355-.229-.264-.358-.362-.375-.323zm1.887.311c-.038.006-.063.032-.063.08 0 .072.113.195.25.275.324.19.324.189.233-.048-.068-.178-.306-.326-.42-.307zm-4.908.309a.17.17 0 0 0-.084.015c-.106.04-.192.194-.192.342 0 .388.24.333.317-.072.035-.184.024-.275-.041-.285zm4.78.214c-.123-.058-.409.092-.704.4-.326.34-.38.493-.301.852.094.427.107.434.488.237.356-.185.408-.178.588.072.267.37.537.347.723-.06.18-.398-.171-1.23-.52-1.23-.115 0-.209-.064-.209-.142 0-.068-.023-.11-.064-.129zm1.78 2.12a.147.147 0 0 0-.15.142c0 .078.028.143.062.143.035 0 .102-.065.15-.143.05-.078.021-.142-.062-.142z"/><path style="isolation:auto;mix-blend-mode:normal" fill="#f8b84e" d="M8.5 1050.362c0-1.142.967-2.062 2.167-2.062h8.667c1.2 0 2.166.92 2.166 2.062H15z" color="#000" overflow="visible"/></g><path style="isolation:auto;mix-blend-mode:normal" fill="#f05542" d="M-454 1116.362c0 2.21-4 8-4 8s-4-5.79-4-8a4 4 0 0 1 8 0z" color="#000" overflow="visible"/><circle cx="-458" cy="1116.362" r="1.5" fill="#4bbfeb" stroke="#34485c" stroke-dashoffset="1.5" style="isolation:auto;mix-blend-mode:normal" stroke-linecap="round" stroke-linejoin="round" color="#000" overflow="visible"/></g></svg>